<svg xmlns="http://www.w3.org/2000/svg" xmlns:xlink="http://www.w3.org/1999/xlink" width="7500" height="7383" viewBox="0 0 7500 7383">
  <defs>
    <style>
      .cls-1 {
        fill-rule: evenodd;
        fill: url(#linear-gradient);
      }
    </style>
    <linearGradient id="linear-gradient" x1="3778" y1="7186.97" x2="3778" y2="453" gradientUnits="userSpaceOnUse">
      <stop offset="0" stop-color="#1eaeea"/>
      <stop offset="1" stop-color="#29c6bf"/>
    </linearGradient>
  </defs>
  <path class="cls-1" d="M6366.72,810.13c-236.06,165.37-365.5,518.12-357.28,765.38,11.26,338.75-149.21,152.18-161.05,140.51-395.68-389.74-842.51-542.21-1090.4-590.82-239.35-46.94-11.28-234.327-50.32-192.747,537.57-572.446,1379.42-535.742,1691.76-381.2C6552.43,626.952,6366.72,810.13,6366.72,810.13ZM4309.26,4535.39c-678.91-417.58-581.21-925.92-588.84-825.07,2.44-32.21,19.74-52.61,70.38-63.42,107.89-23.04,599.14-21.29,597.86,117.01C4384.28,4236.8,4872.98,4882.11,4309.26,4535.39Zm1900.28,378.15c-346.56,689.27-1018.92,1208.95-1869.92,1274.09-117.39,165.46-274.5,399.26-485.91,648.12-358.51,422.02-953.27,345.88-953.27,345.88-142.14-.62-55.03-106.08-55.03-106.08,711.72-574.8,283.19-859.86,482.72-1080.63,99.88-110.52,430.82-138.16,721.74-128.74a359.437,359.437,0,0,1,18.09-39.82c-287.64-78.08-618.34-211.3-668.69-352.65-94.89-266.36,421.98-402.28-4.19-1154.06,0,0-37.68-124.75,95.02-82.24,0,0,585.62,109.3,745.67,611.53,107.69,337.95,157.57,636.2,202.5,827.44,101.09-26.84,218.34-70.11,333.54-139.95,721.57-437.46,676.94-1411.56-64.08-1817.65-538.68-295.21-1555.01-160.89-2378.52,67.84-878.48,244.01-1065.03,144.55-1065.03,144.55s-502.444-152.83,42.65-632.78c44.13-38.86,95.2-79.08,152.71-122.12,52.27-39.12,65.92-96.23,57.76-183.14-23.95-255.32-151.28-902.52,331.89-1369.28C2274.3,1213.19,3227.45,945.5,4369.63,1161.74,6424.5,1550.78,6892.62,3554.99,6209.54,4913.54ZM2401.88,2393.57c-118.78,0-215.08,96.63-215.08,215.82s96.3,215.81,215.08,215.81,215.09-96.62,215.09-215.81S2520.67,2393.57,2401.88,2393.57Z"/>
</svg>
